<?xml version="1.0" encoding="utf-8" standalone="no"?>
<!DOCTYPE svg PUBLIC "-//W3C//DTD SVG 1.1//EN"
  "http://www.w3.org/Graphics/SVG/1.1/DTD/svg11.dtd">
<!-- Created with matplotlib (https://matplotlib.org/) -->
<svg height="280.08pt" version="1.1" viewBox="0 0 676.8 280.08" width="676.8pt" xmlns="http://www.w3.org/2000/svg" xmlns:xlink="http://www.w3.org/1999/xlink">
 <metadata>
  <rdf:RDF xmlns:cc="http://creativecommons.org/ns#" xmlns:dc="http://purl.org/dc/elements/1.1/" xmlns:rdf="http://www.w3.org/1999/02/22-rdf-syntax-ns#">
   <cc:Work>
    <dc:type rdf:resource="http://purl.org/dc/dcmitype/StillImage"/>
    <dc:date>2021-04-30T15:29:45.207340</dc:date>
    <dc:format>image/svg+xml</dc:format>
    <dc:creator>
     <cc:Agent>
      <dc:title>Matplotlib v3.3.3, https://matplotlib.org/</dc:title>
     </cc:Agent>
    </dc:creator>
   </cc:Work>
  </rdf:RDF>
 </metadata>
 <defs>
  <style type="text/css">*{stroke-linecap:butt;stroke-linejoin:round;}</style>
 </defs>
 <g id="figure_1">
  <g id="patch_1">
   <path d="M 0 280.08 
L 676.8 280.08 
L 676.8 0 
L 0 0 
z
" style="fill:#ffffff;"/>
  </g>
  <g id="axes_1">
   <g id="patch_2">
    <path d="M 84.6 249.2712 
L 609.12 249.2712 
L 609.12 33.6096 
L 84.6 33.6096 
z
" style="fill:#ffffff;"/>
   </g>
   <g id="matplotlib.axis_1">
    <g id="xtick_1">
     <g id="line2d_1">
      <defs>
       <path d="M 0 0 
L 0 3.5 
" id="m7d4306b120" style="stroke:#000000;stroke-width:0.8;"/>
      </defs>
      <g>
       <use style="stroke:#000000;stroke-width:0.8;" x="135.593265" xlink:href="#m7d4306b120" y="249.2712"/>
      </g>
     </g>
     <g id="text_1">
      <!-- 1.8440 -->
      <g transform="translate(118.097953 263.869638)scale(0.1 -0.1)">
       <defs>
        <path d="M 12.40625 8.296875 
L 28.515625 8.296875 
L 28.515625 63.921875 
L 10.984375 60.40625 
L 10.984375 69.390625 
L 28.421875 72.90625 
L 38.28125 72.90625 
L 38.28125 8.296875 
L 54.390625 8.296875 
L 54.390625 0 
L 12.40625 0 
z
" id="DejaVuSans-49"/>
        <path d="M 10.6875 12.40625 
L 21 12.40625 
L 21 0 
L 10.6875 0 
z
" id="DejaVuSans-46"/>
        <path d="M 31.78125 34.625 
Q 24.75 34.625 20.71875 30.859375 
Q 16.703125 27.09375 16.703125 20.515625 
Q 16.703125 13.921875 20.71875 10.15625 
Q 24.75 6.390625 31.78125 6.390625 
Q 38.8125 6.390625 42.859375 10.171875 
Q 46.921875 13.96875 46.921875 20.515625 
Q 46.921875 27.09375 42.890625 30.859375 
Q 38.875 34.625 31.78125 34.625 
z
M 21.921875 38.8125 
Q 15.578125 40.375 12.03125 44.71875 
Q 8.5 49.078125 8.5 55.328125 
Q 8.5 64.0625 14.71875 69.140625 
Q 20.953125 74.21875 31.78125 74.21875 
Q 42.671875 74.21875 48.875 69.140625 
Q 55.078125 64.0625 55.078125 55.328125 
Q 55.078125 49.078125 51.53125 44.71875 
Q 48 40.375 41.703125 38.8125 
Q 48.828125 37.15625 52.796875 32.3125 
Q 56.78125 27.484375 56.78125 20.515625 
Q 56.78125 9.90625 50.3125 4.234375 
Q 43.84375 -1.421875 31.78125 -1.421875 
Q 19.734375 -1.421875 13.25 4.234375 
Q 6.78125 9.90625 6.78125 20.515625 
Q 6.78125 27.484375 10.78125 32.3125 
Q 14.796875 37.15625 21.921875 38.8125 
z
M 18.3125 54.390625 
Q 18.3125 48.734375 21.84375 45.5625 
Q 25.390625 42.390625 31.78125 42.390625 
Q 38.140625 42.390625 41.71875 45.5625 
Q 45.3125 48.734375 45.3125 54.390625 
Q 45.3125 60.0625 41.71875 63.234375 
Q 38.140625 66.40625 31.78125 66.40625 
Q 25.390625 66.40625 21.84375 63.234375 
Q 18.3125 60.0625 18.3125 54.390625 
z
" id="DejaVuSans-56"/>
        <path d="M 37.796875 64.3125 
L 12.890625 25.390625 
L 37.796875 25.390625 
z
M 35.203125 72.90625 
L 47.609375 72.90625 
L 47.609375 25.390625 
L 58.015625 25.390625 
L 58.015625 17.1875 
L 47.609375 17.1875 
L 47.609375 0 
L 37.796875 0 
L 37.796875 17.1875 
L 4.890625 17.1875 
L 4.890625 26.703125 
z
" id="DejaVuSans-52"/>
        <path d="M 31.78125 66.40625 
Q 24.171875 66.40625 20.328125 58.90625 
Q 16.5 51.421875 16.5 36.375 
Q 16.5 21.390625 20.328125 13.890625 
Q 24.171875 6.390625 31.78125 6.390625 
Q 39.453125 6.390625 43.28125 13.890625 
Q 47.125 21.390625 47.125 36.375 
Q 47.125 51.421875 43.28125 58.90625 
Q 39.453125 66.40625 31.78125 66.40625 
z
M 31.78125 74.21875 
Q 44.046875 74.21875 50.515625 64.515625 
Q 56.984375 54.828125 56.984375 36.375 
Q 56.984375 17.96875 50.515625 8.265625 
Q 44.046875 -1.421875 31.78125 -1.421875 
Q 19.53125 -1.421875 13.0625 8.265625 
Q 6.59375 17.96875 6.59375 36.375 
Q 6.59375 54.828125 13.0625 64.515625 
Q 19.53125 74.21875 31.78125 74.21875 
z
" id="DejaVuSans-48"/>
       </defs>
       <use xlink:href="#DejaVuSans-49"/>
       <use x="63.623047" xlink:href="#DejaVuSans-46"/>
       <use x="95.410156" xlink:href="#DejaVuSans-56"/>
       <use x="159.033203" xlink:href="#DejaVuSans-52"/>
       <use x="222.65625" xlink:href="#DejaVuSans-52"/>
       <use x="286.279297" xlink:href="#DejaVuSans-48"/>
      </g>
     </g>
    </g>
    <g id="xtick_2">
     <g id="line2d_2">
      <g>
       <use style="stroke:#000000;stroke-width:0.8;" x="196.64916" xlink:href="#m7d4306b120" y="249.2712"/>
      </g>
     </g>
     <g id="text_2">
      <!-- 1.8442 -->
      <g transform="translate(179.153848 263.869638)scale(0.1 -0.1)">
       <defs>
        <path d="M 19.1875 8.296875 
L 53.609375 8.296875 
L 53.609375 0 
L 7.328125 0 
L 7.328125 8.296875 
Q 12.9375 14.109375 22.625 23.890625 
Q 32.328125 33.6875 34.8125 36.53125 
Q 39.546875 41.84375 41.421875 45.53125 
Q 43.3125 49.21875 43.3125 52.78125 
Q 43.3125 58.59375 39.234375 62.25 
Q 35.15625 65.921875 28.609375 65.921875 
Q 23.96875 65.921875 18.8125 64.3125 
Q 13.671875 62.703125 7.8125 59.421875 
L 7.8125 69.390625 
Q 13.765625 71.78125 18.9375 73 
Q 24.125 74.21875 28.421875 74.21875 
Q 39.75 74.21875 46.484375 68.546875 
Q 53.21875 62.890625 53.21875 53.421875 
Q 53.21875 48.921875 51.53125 44.890625 
Q 49.859375 40.875 45.40625 35.40625 
Q 44.1875 33.984375 37.640625 27.21875 
Q 31.109375 20.453125 19.1875 8.296875 
z
" id="DejaVuSans-50"/>
       </defs>
       <use xlink:href="#DejaVuSans-49"/>
       <use x="63.623047" xlink:href="#DejaVuSans-46"/>
       <use x="95.410156" xlink:href="#DejaVuSans-56"/>
       <use x="159.033203" xlink:href="#DejaVuSans-52"/>
       <use x="222.65625" xlink:href="#DejaVuSans-52"/>
       <use x="286.279297" xlink:href="#DejaVuSans-50"/>
      </g>
     </g>
    </g>
    <g id="xtick_3">
     <g id="line2d_3">
      <g>
       <use style="stroke:#000000;stroke-width:0.8;" x="257.705056" xlink:href="#m7d4306b120" y="249.2712"/>
      </g>
     </g>
     <g id="text_3">
      <!-- 1.8444 -->
      <g transform="translate(240.209743 263.869638)scale(0.1 -0.1)">
       <use xlink:href="#DejaVuSans-49"/>
       <use x="63.623047" xlink:href="#DejaVuSans-46"/>
       <use x="95.410156" xlink:href="#DejaVuSans-56"/>
       <use x="159.033203" xlink:href="#DejaVuSans-52"/>
       <use x="222.65625" xlink:href="#DejaVuSans-52"/>
       <use x="286.279297" xlink:href="#DejaVuSans-52"/>
      </g>
     </g>
    </g>
    <g id="xtick_4">
     <g id="line2d_4">
      <g>
       <use style="stroke:#000000;stroke-width:0.8;" x="318.760951" xlink:href="#m7d4306b120" y="249.2712"/>
      </g>
     </g>
     <g id="text_4">
      <!-- 1.8446 -->
      <g transform="translate(301.265638 263.869638)scale(0.1 -0.1)">
       <defs>
        <path d="M 33.015625 40.375 
Q 26.375 40.375 22.484375 35.828125 
Q 18.609375 31.296875 18.609375 23.390625 
Q 18.609375 15.53125 22.484375 10.953125 
Q 26.375 6.390625 33.015625 6.390625 
Q 39.65625 6.390625 43.53125 10.953125 
Q 47.40625 15.53125 47.40625 23.390625 
Q 47.40625 31.296875 43.53125 35.828125 
Q 39.65625 40.375 33.015625 40.375 
z
M 52.59375 71.296875 
L 52.59375 62.3125 
Q 48.875 64.0625 45.09375 64.984375 
Q 41.3125 65.921875 37.59375 65.921875 
Q 27.828125 65.921875 22.671875 59.328125 
Q 17.53125 52.734375 16.796875 39.40625 
Q 19.671875 43.65625 24.015625 45.921875 
Q 28.375 48.1875 33.59375 48.1875 
Q 44.578125 48.1875 50.953125 41.515625 
Q 57.328125 34.859375 57.328125 23.390625 
Q 57.328125 12.15625 50.6875 5.359375 
Q 44.046875 -1.421875 33.015625 -1.421875 
Q 20.359375 -1.421875 13.671875 8.265625 
Q 6.984375 17.96875 6.984375 36.375 
Q 6.984375 53.65625 15.1875 63.9375 
Q 23.390625 74.21875 37.203125 74.21875 
Q 40.921875 74.21875 44.703125 73.484375 
Q 48.484375 72.75 52.59375 71.296875 
z
" id="DejaVuSans-54"/>
       </defs>
       <use xlink:href="#DejaVuSans-49"/>
       <use x="63.623047" xlink:href="#DejaVuSans-46"/>
       <use x="95.410156" xlink:href="#DejaVuSans-56"/>
       <use x="159.033203" xlink:href="#DejaVuSans-52"/>
       <use x="222.65625" xlink:href="#DejaVuSans-52"/>
       <use x="286.279297" xlink:href="#DejaVuSans-54"/>
      </g>
     </g>
    </g>
    <g id="xtick_5">
     <g id="line2d_5">
      <g>
       <use style="stroke:#000000;stroke-width:0.8;" x="379.816846" xlink:href="#m7d4306b120" y="249.2712"/>
      </g>
     </g>
     <g id="text_5">
      <!-- 1.8448 -->
      <g transform="translate(362.321534 263.869638)scale(0.1 -0.1)">
       <use xlink:href="#DejaVuSans-49"/>
       <use x="63.623047" xlink:href="#DejaVuSans-46"/>
       <use x="95.410156" xlink:href="#DejaVuSans-56"/>
       <use x="159.033203" xlink:href="#DejaVuSans-52"/>
       <use x="222.65625" xlink:href="#DejaVuSans-52"/>
       <use x="286.279297" xlink:href="#DejaVuSans-56"/>
      </g>
     </g>
    </g>
    <g id="xtick_6">
     <g id="line2d_6">
      <g>
       <use style="stroke:#000000;stroke-width:0.8;" x="440.872741" xlink:href="#m7d4306b120" y="249.2712"/>
      </g>
     </g>
     <g id="text_6">
      <!-- 1.8450 -->
      <g transform="translate(423.377429 263.869638)scale(0.1 -0.1)">
       <defs>
        <path d="M 10.796875 72.90625 
L 49.515625 72.90625 
L 49.515625 64.59375 
L 19.828125 64.59375 
L 19.828125 46.734375 
Q 21.96875 47.46875 24.109375 47.828125 
Q 26.265625 48.1875 28.421875 48.1875 
Q 40.625 48.1875 47.75 41.5 
Q 54.890625 34.8125 54.890625 23.390625 
Q 54.890625 11.625 47.5625 5.09375 
Q 40.234375 -1.421875 26.90625 -1.421875 
Q 22.3125 -1.421875 17.546875 -0.640625 
Q 12.796875 0.140625 7.71875 1.703125 
L 7.71875 11.625 
Q 12.109375 9.234375 16.796875 8.0625 
Q 21.484375 6.890625 26.703125 6.890625 
Q 35.15625 6.890625 40.078125 11.328125 
Q 45.015625 15.765625 45.015625 23.390625 
Q 45.015625 31 40.078125 35.4375 
Q 35.15625 39.890625 26.703125 39.890625 
Q 22.75 39.890625 18.8125 39.015625 
Q 14.890625 38.140625 10.796875 36.28125 
z
" id="DejaVuSans-53"/>
       </defs>
       <use xlink:href="#DejaVuSans-49"/>
       <use x="63.623047" xlink:href="#DejaVuSans-46"/>
       <use x="95.410156" xlink:href="#DejaVuSans-56"/>
       <use x="159.033203" xlink:href="#DejaVuSans-52"/>
       <use x="222.65625" xlink:href="#DejaVuSans-53"/>
       <use x="286.279297" xlink:href="#DejaVuSans-48"/>
      </g>
     </g>
    </g>
    <g id="xtick_7">
     <g id="line2d_7">
      <g>
       <use style="stroke:#000000;stroke-width:0.8;" x="501.928637" xlink:href="#m7d4306b120" y="249.2712"/>
      </g>
     </g>
     <g id="text_7">
      <!-- 1.8452 -->
      <g transform="translate(484.433324 263.869638)scale(0.1 -0.1)">
       <use xlink:href="#DejaVuSans-49"/>
       <use x="63.623047" xlink:href="#DejaVuSans-46"/>
       <use x="95.410156" xlink:href="#DejaVuSans-56"/>
       <use x="159.033203" xlink:href="#DejaVuSans-52"/>
       <use x="222.65625" xlink:href="#DejaVuSans-53"/>
       <use x="286.279297" xlink:href="#DejaVuSans-50"/>
      </g>
     </g>
    </g>
    <g id="xtick_8">
     <g id="line2d_8">
      <g>
       <use style="stroke:#000000;stroke-width:0.8;" x="562.984532" xlink:href="#m7d4306b120" y="249.2712"/>
      </g>
     </g>
     <g id="text_8">
      <!-- 1.8454 -->
      <g transform="translate(545.48922 263.869638)scale(0.1 -0.1)">
       <use xlink:href="#DejaVuSans-49"/>
       <use x="63.623047" xlink:href="#DejaVuSans-46"/>
       <use x="95.410156" xlink:href="#DejaVuSans-56"/>
       <use x="159.033203" xlink:href="#DejaVuSans-52"/>
       <use x="222.65625" xlink:href="#DejaVuSans-53"/>
       <use x="286.279297" xlink:href="#DejaVuSans-52"/>
      </g>
     </g>
    </g>
    <g id="text_9">
     <!-- 1e6 -->
     <g transform="translate(590.241875 276.547762)scale(0.1 -0.1)">
      <defs>
       <path d="M 56.203125 29.59375 
L 56.203125 25.203125 
L 14.890625 25.203125 
Q 15.484375 15.921875 20.484375 11.0625 
Q 25.484375 6.203125 34.421875 6.203125 
Q 39.59375 6.203125 44.453125 7.46875 
Q 49.3125 8.734375 54.109375 11.28125 
L 54.109375 2.78125 
Q 49.265625 0.734375 44.1875 -0.34375 
Q 39.109375 -1.421875 33.890625 -1.421875 
Q 20.796875 -1.421875 13.15625 6.1875 
Q 5.515625 13.8125 5.515625 26.8125 
Q 5.515625 40.234375 12.765625 48.109375 
Q 20.015625 56 32.328125 56 
Q 43.359375 56 49.78125 48.890625 
Q 56.203125 41.796875 56.203125 29.59375 
z
M 47.21875 32.234375 
Q 47.125 39.59375 43.09375 43.984375 
Q 39.0625 48.390625 32.421875 48.390625 
Q 24.90625 48.390625 20.390625 44.140625 
Q 15.875 39.890625 15.1875 32.171875 
z
" id="DejaVuSans-101"/>
      </defs>
      <use xlink:href="#DejaVuSans-49"/>
      <use x="63.623047" xlink:href="#DejaVuSans-101"/>
      <use x="125.146484" xlink:href="#DejaVuSans-54"/>
     </g>
    </g>
   </g>
   <g id="matplotlib.axis_2">
    <g id="ytick_1">
     <g id="line2d_9">
      <defs>
       <path d="M 0 0 
L -3.5 0 
" id="m1ef1c37dbe" style="stroke:#000000;stroke-width:0.8;"/>
      </defs>
      <g>
       <use style="stroke:#000000;stroke-width:0.8;" x="84.6" xlink:href="#m1ef1c37dbe" y="224.611857"/>
      </g>
     </g>
     <g id="text_10">
      <!-- 20 -->
      <g transform="translate(64.875 228.411075)scale(0.1 -0.1)">
       <use xlink:href="#DejaVuSans-50"/>
       <use x="63.623047" xlink:href="#DejaVuSans-48"/>
      </g>
     </g>
    </g>
    <g id="ytick_2">
     <g id="line2d_10">
      <g>
       <use style="stroke:#000000;stroke-width:0.8;" x="84.6" xlink:href="#m1ef1c37dbe" y="191.722615"/>
      </g>
     </g>
     <g id="text_11">
      <!-- 40 -->
      <g transform="translate(64.875 195.521833)scale(0.1 -0.1)">
       <use xlink:href="#DejaVuSans-52"/>
       <use x="63.623047" xlink:href="#DejaVuSans-48"/>
      </g>
     </g>
    </g>
    <g id="ytick_3">
     <g id="line2d_11">
      <g>
       <use style="stroke:#000000;stroke-width:0.8;" x="84.6" xlink:href="#m1ef1c37dbe" y="158.833372"/>
      </g>
     </g>
     <g id="text_12">
      <!-- 60 -->
      <g transform="translate(64.875 162.632591)scale(0.1 -0.1)">
       <use xlink:href="#DejaVuSans-54"/>
       <use x="63.623047" xlink:href="#DejaVuSans-48"/>
      </g>
     </g>
    </g>
    <g id="ytick_4">
     <g id="line2d_12">
      <g>
       <use style="stroke:#000000;stroke-width:0.8;" x="84.6" xlink:href="#m1ef1c37dbe" y="125.94413"/>
      </g>
     </g>
     <g id="text_13">
      <!-- 80 -->
      <g transform="translate(64.875 129.743349)scale(0.1 -0.1)">
       <use xlink:href="#DejaVuSans-56"/>
       <use x="63.623047" xlink:href="#DejaVuSans-48"/>
      </g>
     </g>
    </g>
    <g id="ytick_5">
     <g id="line2d_13">
      <g>
       <use style="stroke:#000000;stroke-width:0.8;" x="84.6" xlink:href="#m1ef1c37dbe" y="93.054888"/>
      </g>
     </g>
     <g id="text_14">
      <!-- 100 -->
      <g transform="translate(58.5125 96.854107)scale(0.1 -0.1)">
       <use xlink:href="#DejaVuSans-49"/>
       <use x="63.623047" xlink:href="#DejaVuSans-48"/>
       <use x="127.246094" xlink:href="#DejaVuSans-48"/>
      </g>
     </g>
    </g>
    <g id="ytick_6">
     <g id="line2d_14">
      <g>
       <use style="stroke:#000000;stroke-width:0.8;" x="84.6" xlink:href="#m1ef1c37dbe" y="60.165646"/>
      </g>
     </g>
     <g id="text_15">
      <!-- 120 -->
      <g transform="translate(58.5125 63.964865)scale(0.1 -0.1)">
       <use xlink:href="#DejaVuSans-49"/>
       <use x="63.623047" xlink:href="#DejaVuSans-50"/>
       <use x="127.246094" xlink:href="#DejaVuSans-48"/>
      </g>
     </g>
    </g>
   </g>
   <g id="line2d_15">
    <path clip-path="url(#p813ce1aae1)" d="M 84.306313 228.394119 
L 84.611593 227.407442 
L 84.916872 227.242996 
L 85.527431 218.362901 
L 85.83271 215.567315 
L 86.13799 215.402869 
L 86.748549 225.434088 
L 87.053828 228.394119 
L 87.359108 228.887458 
L 87.664387 227.736335 
L 87.969667 230.038582 
L 88.274946 230.53192 
L 88.580226 225.105195 
L 88.885505 224.940749 
L 89.190785 228.887458 
L 89.496064 227.07855 
L 89.801344 226.256319 
L 90.106623 228.558566 
L 90.411903 226.420765 
L 90.717182 227.407442 
L 91.022462 225.434088 
L 91.327741 230.53192 
L 91.63302 240.892031 
L 91.9383 244.016509 
L 92.243579 244.83874 
L 92.548859 244.83874 
L 92.854138 245.167633 
L 93.159418 240.234247 
L 93.464697 240.398693 
L 93.769977 239.576462 
L 94.075256 240.234247 
L 94.380536 237.767553 
L 94.685815 236.945322 
L 94.991095 237.767553 
L 95.296374 236.451984 
L 95.601654 237.603107 
L 95.906933 237.274215 
L 96.212213 240.892031 
L 96.517492 240.727585 
L 96.822772 242.865386 
L 97.128051 242.207601 
L 97.433331 243.523171 
L 97.73861 244.345402 
L 98.043889 243.194278 
L 98.349169 243.194278 
L 98.654448 242.865386 
L 98.959728 239.905354 
L 99.265007 241.056478 
L 99.570287 240.892031 
L 99.875566 239.412016 
L 100.180846 239.740908 
L 100.486125 236.123091 
L 100.791405 236.123091 
L 101.096684 235.958645 
L 101.707243 235.958645 
L 102.012523 234.971968 
L 104.149479 234.971968 
L 104.454758 235.794199 
L 104.760038 236.287538 
L 105.065317 239.412016 
L 105.370597 238.260892 
L 105.675876 239.412016 
L 105.981156 238.260892 
L 108.423392 84.010347 
L 109.033951 46.352165 
L 109.33923 47.174396 
L 109.64451 45.858826 
L 109.949789 46.681057 
L 110.255069 45.69438 
L 110.560348 48.489965 
L 110.865628 45.69438 
L 111.170907 46.187718 
L 111.476186 45.201041 
L 111.781466 44.872149 
L 112.086745 45.529934 
L 112.392025 45.69438 
L 112.697304 48.818858 
L 113.002584 44.872149 
L 113.307863 46.187718 
L 113.613143 45.69438 
L 113.918422 47.174396 
L 114.223702 44.37881 
L 114.528981 45.201041 
L 114.834261 44.707702 
L 115.13954 46.187718 
L 115.44482 46.352165 
L 115.750099 44.214364 
L 116.055379 44.543256 
L 116.360658 45.365487 
L 116.665938 44.707702 
L 116.971217 44.707702 
L 117.276497 45.858826 
L 117.581776 46.352165 
L 118.192335 43.721025 
L 118.802894 42.241009 
L 119.108173 42.734348 
L 119.413453 42.076563 
L 120.024012 43.392133 
L 120.329291 42.898794 
L 120.634571 43.556579 
L 120.93985 42.405456 
L 121.24513 43.392133 
L 121.550409 42.734348 
L 121.855689 45.365487 
L 122.160968 44.049918 
L 122.466248 44.214364 
L 122.771527 43.721025 
L 123.076807 44.543256 
L 123.992645 48.983304 
L 124.297924 48.983304 
L 124.908483 45.201041 
L 125.213763 45.69438 
L 125.519042 46.845503 
L 125.824322 49.805535 
L 126.129601 49.476643 
L 126.434881 48.489965 
L 126.74016 46.681057 
L 127.04544 46.023272 
L 127.350719 47.174396 
L 127.655999 49.312196 
L 128.266558 51.943336 
L 128.571837 51.77889 
L 128.877117 49.805535 
L 129.182396 49.476643 
L 129.487676 50.298874 
L 129.792955 52.930013 
L 130.098235 54.245583 
L 130.403514 53.587798 
L 130.708793 55.890045 
L 131.014073 53.258905 
L 131.624632 50.627766 
L 131.929911 50.46332 
L 132.235191 50.134427 
L 132.54047 49.312196 
L 132.84575 47.83218 
L 133.151029 47.174396 
L 133.456309 44.049918 
L 133.761588 43.227687 
L 134.066868 45.365487 
L 134.372147 46.516611 
L 134.677427 46.187718 
L 134.982706 49.14775 
L 135.287986 45.69438 
L 135.593265 44.543256 
L 135.898545 44.049918 
L 136.203824 42.241009 
L 136.509104 44.37881 
L 136.814383 42.898794 
L 137.119662 43.06324 
L 137.424942 44.872149 
L 137.730221 44.872149 
L 138.035501 42.569902 
L 138.34078 45.858826 
L 138.64606 46.352165 
L 138.951339 45.201041 
L 139.256619 45.69438 
L 139.561898 45.201041 
L 139.867178 47.503288 
L 140.172457 48.489965 
L 140.477737 47.009949 
L 140.783016 49.805535 
L 141.088296 48.818858 
L 141.393575 47.174396 
L 141.698855 47.503288 
L 142.614693 52.107782 
L 142.919973 50.46332 
L 143.225252 47.83218 
L 143.530531 47.996627 
L 143.835811 44.543256 
L 144.14109 46.187718 
L 144.44637 49.969981 
L 144.751649 50.956658 
L 145.056929 52.930013 
L 145.667488 85.490363 
L 148.109724 208.82502 
L 148.415003 210.305036 
L 148.720283 214.087299 
L 149.025562 214.90953 
L 149.330842 216.060654 
L 149.636121 214.90953 
L 149.9414 220.665148 
L 150.24668 219.185132 
L 150.551959 215.402869 
L 150.857239 216.2251 
L 151.162518 212.936176 
L 151.467798 211.785052 
L 151.773077 208.82502 
L 152.078357 208.660574 
L 152.383636 207.509451 
L 152.688916 208.167236 
L 152.994195 207.345005 
L 153.299475 208.331682 
L 153.604754 205.37165 
L 153.910034 205.37165 
L 154.215313 210.798375 
L 154.520593 211.291714 
L 154.825872 213.429514 
L 155.131152 217.211777 
L 155.436431 222.638502 
L 155.741711 225.105195 
L 157.878667 98.974952 
L 158.794505 40.432101 
L 159.099785 41.254332 
L 159.405064 39.280978 
L 160.015623 42.898794 
L 160.320903 42.405456 
L 160.626182 43.721025 
L 160.931462 43.721025 
L 161.236741 43.556579 
L 161.542021 48.489965 
L 161.8473 48.325519 
L 162.15258 47.83218 
L 162.457859 51.943336 
L 162.763138 49.641089 
L 163.068418 50.134427 
L 163.373697 51.943336 
L 163.678977 50.792212 
L 163.984256 52.601121 
L 164.289536 55.561152 
L 164.594815 51.285551 
L 165.205374 49.641089 
L 165.510654 45.69438 
L 165.815933 46.023272 
L 166.121213 45.529934 
L 166.426492 44.049918 
L 166.731772 46.023272 
L 167.342331 37.143177 
L 167.64761 39.938762 
L 167.95289 40.267655 
L 168.563449 45.036595 
L 168.868728 48.818858 
L 169.174007 50.792212 
L 169.479287 51.285551 
L 169.784566 49.476643 
L 170.089846 49.805535 
L 170.395125 53.094459 
L 170.700405 51.77889 
L 171.005684 53.094459 
L 171.310964 53.423352 
L 171.616243 52.601121 
L 171.921523 47.83218 
L 172.226802 45.858826 
L 172.532082 44.872149 
L 172.837361 45.529934 
L 173.142641 49.14775 
L 173.44792 48.983304 
L 173.7532 47.503288 
L 174.058479 44.543256 
L 174.363759 43.885471 
L 174.669038 43.556579 
L 174.974318 45.69438 
L 175.279597 44.543256 
L 175.584876 45.69438 
L 175.890156 47.503288 
L 176.500715 40.596547 
L 177.416553 46.187718 
L 177.721833 46.516611 
L 178.027112 49.805535 
L 178.332392 50.956658 
L 178.637671 50.627766 
L 178.942951 48.983304 
L 179.24823 51.77889 
L 179.55351 52.272228 
L 179.858789 51.614443 
L 180.164069 51.943336 
L 180.469348 48.654412 
L 180.774628 51.614443 
L 181.079907 47.503288 
L 181.385187 47.503288 
L 181.690466 47.338842 
L 182.301025 46.187718 
L 182.911584 50.298874 
L 183.216863 48.983304 
L 183.522143 51.285551 
L 183.827422 47.338842 
L 184.437981 47.996627 
L 184.743261 49.476643 
L 185.04854 48.654412 
L 185.35382 46.516611 
L 185.659099 46.845503 
L 185.964379 44.049918 
L 186.269658 46.516611 
L 186.574938 41.418778 
L 186.880217 45.201041 
L 187.185497 43.227687 
L 187.490776 44.543256 
L 187.796056 42.405456 
L 188.406614 48.161073 
L 188.711894 44.37881 
L 189.017173 42.076563 
L 189.322453 42.241009 
L 189.627732 45.69438 
L 189.933012 45.858826 
L 190.238291 49.14775 
L 190.543571 48.325519 
L 190.84885 48.818858 
L 191.15413 47.009949 
L 191.459409 42.734348 
L 191.764689 44.37881 
L 192.069968 48.489965 
L 192.375248 50.792212 
L 192.680527 49.641089 
L 193.291086 44.707702 
L 193.596366 44.543256 
L 193.901645 46.516611 
L 194.206925 47.338842 
L 194.512204 51.121105 
L 194.817484 51.943336 
L 196.343881 133.837548 
L 196.64916 143.868767 
L 196.95444 157.846695 
L 197.564999 192.873738 
L 197.870278 210.633929 
L 198.175558 210.305036 
L 198.480837 213.922853 
L 198.786117 215.567315 
L 199.091396 216.060654 
L 199.396676 216.060654 
L 199.701955 222.30961 
L 200.007235 221.158486 
L 200.312514 215.896207 
L 200.617794 216.060654 
L 201.228353 209.318359 
L 201.533632 208.82502 
L 201.838911 208.989467 
L 202.144191 212.442837 
L 202.44947 208.331682 
L 203.060029 195.83377 
L 203.365309 189.74926 
L 203.670588 189.584814 
L 203.975868 179.718041 
L 204.281147 185.473659 
L 204.586427 182.842519 
L 204.891706 174.784655 
L 205.196986 171.002392 
L 205.502265 169.686822 
L 205.807545 171.495731 
L 206.418104 171.824623 
L 206.723383 177.086902 
L 207.028663 187.447013 
L 207.333942 177.086902 
L 207.639222 177.251348 
L 207.944501 182.513627 
L 208.24978 182.184734 
L 208.55506 191.06483 
L 209.165619 201.589387 
L 209.470898 207.345005 
L 209.776178 201.753833 
L 210.386737 212.113945 
L 210.692016 206.68722 
L 210.997296 206.851666 
L 211.302575 207.509451 
L 211.607855 209.647251 
L 211.913134 209.811698 
L 212.218414 204.549419 
L 212.523693 204.878311 
L 212.828973 205.37165 
L 214.050091 205.37165 
L 214.35537 208.167236 
L 214.660649 203.562742 
L 214.965929 203.727188 
L 215.271208 207.509451 
L 215.576488 207.509451 
L 215.881767 210.633929 
L 216.187047 210.633929 
L 216.797606 220.99404 
L 217.102885 215.567315 
L 217.408165 212.442837 
L 218.018724 211.620606 
L 218.324003 213.100622 
L 218.629283 218.034008 
L 218.934562 214.90953 
L 219.239842 204.549419 
L 219.850401 194.353754 
L 220.15568 204.713865 
L 220.46096 204.549419 
L 220.766239 199.28714 
L 221.071518 199.616033 
L 221.376798 199.780479 
L 222.597916 199.780479 
L 222.903195 208.331682 
L 223.208475 208.331682 
L 223.513754 208.167236 
L 223.819034 214.087299 
L 224.124313 213.593961 
L 224.429593 211.620606 
L 224.734872 206.522773 
L 225.040152 206.358327 
L 225.345431 211.620606 
L 225.650711 211.291714 
L 225.95599 208.660574 
L 226.26127 203.233849 
L 226.566549 201.589387 
L 226.871829 195.669324 
L 227.177108 195.83377 
L 227.482387 198.300463 
L 227.787667 197.971571 
L 228.092946 196.327108 
L 228.398226 196.491555 
L 229.619344 196.491555 
L 229.924623 204.384973 
L 230.229903 205.042758 
L 230.535182 209.482805 
L 230.840462 209.811698 
L 231.145741 206.358327 
L 231.451021 206.358327 
L 231.7563 206.522773 
L 232.366859 204.878311 
L 232.672139 211.785052 
L 232.977418 209.153913 
L 233.587977 198.464909 
L 233.893256 198.464909 
L 234.198536 208.82502 
L 234.503815 208.660574 
L 234.809095 203.398295 
L 235.114374 203.727188 
L 235.419654 204.220527 
L 236.640772 204.220527 
L 236.946051 207.509451 
L 237.251331 202.082726 
L 237.55661 201.589387 
L 237.86189 205.37165 
L 238.167169 205.864989 
L 238.472449 209.811698 
L 238.777728 204.549419 
L 239.083008 205.207204 
L 239.388287 210.14059 
L 239.693567 208.167236 
L 239.998846 204.713865 
L 240.304125 205.700542 
L 240.609405 205.864989 
L 240.914684 205.536096 
L 241.219964 204.878311 
L 241.525243 201.424941 
L 241.830523 204.713865 
L 242.135802 204.384973 
L 242.441082 204.878311 
L 242.746361 206.522773 
L 243.051641 205.207204 
L 243.35692 204.878311 
L 243.6622 205.37165 
L 243.967479 207.016112 
L 244.272759 205.536096 
L 244.578038 205.700542 
L 244.883318 202.411618 
L 245.188597 205.042758 
L 245.493877 204.713865 
L 245.799156 204.713865 
L 246.104436 206.851666 
L 246.409715 206.193881 
L 246.714994 204.220527 
L 247.020274 204.384973 
L 247.325553 205.700542 
L 247.630833 205.536096 
L 247.936112 205.536096 
L 248.241392 203.233849 
L 248.546671 203.069403 
L 248.851951 201.424941 
L 249.15723 201.424941 
L 249.46251 201.589387 
L 249.767789 204.05608 
L 250.073069 203.727188 
L 250.378348 202.082726 
L 250.683628 202.740511 
L 251.904746 202.740511 
L 252.210025 205.207204 
L 252.515305 205.864989 
L 252.820584 205.042758 
L 253.125863 205.207204 
L 253.431143 207.673897 
L 253.736422 207.673897 
L 254.041702 207.838343 
L 254.346981 207.016112 
L 254.652261 207.509451 
L 254.95754 209.153913 
L 255.26282 205.864989 
L 255.568099 206.029435 
L 255.873379 206.68722 
L 256.178658 205.37165 
L 256.789217 203.891634 
L 257.399776 205.207204 
L 258.926174 205.207204 
L 259.231453 209.976144 
L 259.536732 208.660574 
L 260.147291 206.851666 
L 260.452571 205.536096 
L 260.75785 208.331682 
L 261.06313 208.660574 
L 261.368409 209.482805 
L 261.978968 207.838343 
L 262.284248 207.509451 
L 263.505366 213.593961 
L 263.810645 213.593961 
L 264.421204 212.607283 
L 264.726484 213.593961 
L 265.031763 213.429514 
L 265.337043 210.305036 
L 265.642322 210.14059 
L 265.947601 209.153913 
L 266.252881 207.673897 
L 266.55816 207.345005 
L 266.86344 205.042758 
L 267.168719 205.042758 
L 267.473999 204.713865 
L 267.779278 202.576064 
L 268.084558 203.069403 
L 268.389837 203.891634 
L 268.695117 203.562742 
L 269.000396 203.562742 
L 269.305676 204.713865 
L 270.526794 204.713865 
L 270.832073 208.989467 
L 271.137353 209.153913 
L 271.747912 208.496128 
L 272.358471 205.864989 
L 272.66375 205.700542 
L 272.969029 204.878311 
L 273.579588 205.864989 
L 273.884868 202.411618 
L 274.190147 200.60271 
L 274.495427 199.616033 
L 274.800706 200.109371 
L 275.105986 201.91828 
L 275.411265 201.91828 
L 275.716545 200.438264 
L 276.021824 199.944925 
L 276.327104 198.300463 
L 277.548222 198.300463 
L 277.853501 202.411618 
L 278.158781 203.398295 
L 278.46406 203.398295 
L 278.76934 204.220527 
L 279.074619 205.864989 
L 279.379898 211.291714 
L 279.990457 199.451586 
L 280.295737 200.767156 
L 280.601016 191.06483 
L 280.906296 186.953674 
L 281.211575 175.277994 
L 281.822134 166.069006 
L 282.432693 150.446616 
L 282.737973 150.611062 
L 283.043252 151.433293 
L 283.348532 145.842122 
L 283.653811 151.104401 
L 283.959091 145.348783 
L 284.26437 149.788831 
L 284.874929 148.144369 
L 285.485488 168.04236 
L 286.096047 184.815874 
L 287.927724 242.865386 
L 288.233003 241.056478 
L 288.538283 240.234247 
L 288.843562 241.38537 
L 289.148842 241.220924 
L 292.201636 46.845503 
L 292.812195 44.37881 
L 293.117475 44.049918 
L 293.422754 43.06324 
L 294.338593 49.641089 
L 294.643872 53.094459 
L 294.949152 52.272228 
L 295.254431 49.641089 
L 295.559711 47.996627 
L 295.86499 48.818858 
L 296.17027 47.83218 
L 296.475549 49.14775 
L 296.780829 43.885471 
L 297.086108 41.418778 
L 297.391388 43.227687 
L 297.696667 42.898794 
L 298.001947 41.254332 
L 298.307226 42.241009 
L 298.612505 43.885471 
L 298.917785 43.227687 
L 299.223064 46.845503 
L 299.528344 47.667734 
L 299.833623 50.46332 
L 300.138903 51.285551 
L 300.444182 48.654412 
L 300.749462 48.654412 
L 301.054741 50.298874 
L 301.360021 51.285551 
L 301.6653 53.094459 
L 301.97058 53.752244 
L 302.275859 51.614443 
L 302.581139 51.614443 
L 302.886418 52.930013 
L 303.191698 49.476643 
L 303.496977 49.641089 
L 303.802257 48.161073 
L 304.107536 48.654412 
L 304.412816 48.325519 
L 304.718095 48.654412 
L 305.023374 48.161073 
L 305.633933 46.352165 
L 305.939213 43.392133 
L 306.244492 45.529934 
L 306.549772 44.049918 
L 306.855051 44.543256 
L 307.46561 42.076563 
L 307.77089 41.418778 
L 308.076169 41.747671 
L 308.381449 45.036595 
L 308.686728 43.392133 
L 308.992008 42.569902 
L 309.602567 43.721025 
L 309.907846 43.227687 
L 310.213126 44.049918 
L 310.823685 46.516611 
L 311.128964 44.049918 
L 311.434243 42.734348 
L 311.739523 43.556579 
L 312.350082 46.187718 
L 312.655361 46.681057 
L 312.960641 48.818858 
L 313.26592 49.14775 
L 313.5712 48.161073 
L 313.876479 46.187718 
L 314.181759 48.161073 
L 314.487038 45.201041 
L 314.792318 46.352165 
L 315.097597 46.023272 
L 315.402877 42.734348 
L 315.708156 43.06324 
L 316.013436 40.432101 
L 316.318715 40.103209 
L 316.929274 40.760993 
L 317.539833 42.241009 
L 317.845112 41.747671 
L 318.150392 41.583224 
L 318.455671 45.365487 
L 318.760951 44.872149 
L 319.06623 45.036595 
L 319.37151 47.009949 
L 319.676789 47.667734 
L 319.982069 48.983304 
L 320.287348 47.83218 
L 320.592628 48.818858 
L 320.897907 48.983304 
L 321.203187 51.943336 
L 321.813746 47.174396 
L 322.119025 47.996627 
L 322.424305 45.036595 
L 322.729584 45.365487 
L 323.034864 44.872149 
L 323.340143 44.049918 
L 323.950702 47.338842 
L 324.255981 44.707702 
L 324.561261 45.201041 
L 324.86654 49.641089 
L 325.17182 50.627766 
L 325.477099 50.134427 
L 325.782379 48.654412 
L 326.087658 47.996627 
L 326.392938 50.298874 
L 326.698217 50.46332 
L 327.003497 49.805535 
L 327.308776 50.46332 
L 327.614056 49.969981 
L 327.919335 48.983304 
L 328.224615 46.352165 
L 329.140453 99.139398 
L 329.751012 128.246377 
L 330.056292 137.290919 
L 330.361571 153.077755 
L 330.97213 190.078152 
L 331.277409 209.811698 
L 331.582689 209.482805 
L 332.193248 214.90953 
L 332.803807 216.060654 
L 333.109086 221.816271 
L 333.414366 221.158486 
L 333.719645 215.567315 
L 334.024925 216.060654 
L 334.330204 212.442837 
L 334.635484 211.127267 
L 334.940763 210.633929 
L 335.246043 210.798375 
L 335.551322 214.580638 
L 337.077719 188.762583 
L 337.382999 182.184734 
L 337.993558 178.566918 
L 338.298837 175.44244 
L 338.604117 169.686822 
L 339.519955 169.686822 
L 339.825235 171.331284 
L 340.130514 175.935778 
L 340.435794 183.993643 
L 340.741073 183.829196 
L 341.046353 181.362503 
L 341.351632 181.691396 
L 341.656912 183.335858 
L 342.267471 197.149339 
L 342.57275 202.904957 
L 342.87803 206.193881 
L 343.183309 206.193881 
L 343.488588 205.37165 
L 343.793868 205.536096 
L 344.099147 208.002789 
L 344.404427 208.496128 
L 344.709706 208.496128 
L 345.014986 205.37165 
L 345.320265 204.878311 
L 345.930824 206.193881 
L 346.236104 206.358327 
L 347.457222 206.358327 
L 347.762501 209.811698 
L 348.067781 208.989467 
L 348.37306 210.305036 
L 348.67834 209.153913 
L 348.983619 208.989467 
L 349.288899 212.113945 
L 349.899457 212.113945 
L 350.204737 211.291714 
L 350.510016 211.45616 
L 350.815296 208.660574 
L 351.120575 209.647251 
L 351.425855 208.331682 
L 351.731134 209.482805 
L 352.036414 208.989467 
L 352.341693 205.700542 
L 352.952252 207.180558 
L 353.257532 207.016112 
L 353.868091 205.536096 
L 354.47865 206.851666 
L 354.783929 204.384973 
L 356.005047 204.384973 
L 356.310327 208.002789 
L 356.615606 208.002789 
L 356.920885 208.989467 
L 357.226165 207.509451 
L 357.531444 208.167236 
L 357.836724 209.153913 
L 358.142003 209.318359 
L 358.752562 209.318359 
L 359.057842 209.647251 
L 359.363121 205.536096 
L 359.668401 206.851666 
L 359.97368 205.207204 
L 360.27896 205.700542 
L 360.584239 205.37165 
L 360.889519 205.37165 
L 361.194798 206.522773 
L 361.500078 205.864989 
L 361.805357 203.398295 
L 363.026475 203.398295 
L 363.331754 206.358327 
L 363.637034 205.700542 
L 363.942313 206.68722 
L 364.247593 206.193881 
L 364.552872 206.68722 
L 364.858152 208.331682 
L 365.163431 207.509451 
L 365.468711 208.167236 
L 365.77399 206.358327 
L 366.07927 207.345005 
L 366.384549 205.37165 
L 366.995108 204.549419 
L 367.300388 204.220527 
L 367.605667 204.713865 
L 367.910947 205.536096 
L 368.216226 205.207204 
L 368.521506 205.207204 
L 368.826785 207.345005 
L 370.047903 207.345005 
L 370.353182 210.305036 
L 370.963741 208.989467 
L 371.269021 210.305036 
L 371.5743 209.647251 
L 371.87958 211.45616 
L 372.184859 212.113945 
L 372.490139 210.633929 
L 372.795418 212.113945 
L 373.100698 211.45616 
L 373.405977 208.989467 
L 373.711257 208.660574 
L 374.016536 209.811698 
L 374.321816 208.002789 
L 374.627095 208.82502 
L 374.932375 205.37165 
L 375.237654 207.673897 
L 375.542934 208.496128 
L 375.848213 208.002789 
L 376.153492 208.002789 
L 376.458772 205.864989 
L 376.764051 206.68722 
L 377.069331 206.193881 
L 377.37461 206.193881 
L 377.67989 204.878311 
L 377.985169 205.042758 
L 378.290449 201.753833 
L 378.595728 204.713865 
L 378.901008 205.700542 
L 379.206287 207.345005 
L 379.511567 207.838343 
L 379.816846 208.989467 
L 380.122126 207.509451 
L 380.427405 208.331682 
L 380.732685 209.482805 
L 381.037964 209.482805 
L 381.343244 210.469483 
L 381.648523 206.68722 
L 381.953803 206.193881 
L 382.259082 204.549419 
L 382.564361 205.042758 
L 382.869641 204.713865 
L 383.17492 204.713865 
L 383.4802 205.864989 
L 383.785479 205.207204 
L 385.311877 205.207204 
L 385.617156 208.660574 
L 385.922436 206.851666 
L 386.227715 209.318359 
L 386.532995 208.167236 
L 386.838274 208.660574 
L 387.143554 208.660574 
L 387.448833 207.838343 
L 387.754113 208.496128 
L 388.059392 208.496128 
L 388.364672 210.962821 
L 388.669951 207.838343 
L 388.97523 208.496128 
L 389.28051 206.851666 
L 389.585789 206.358327 
L 389.891069 208.331682 
L 390.196348 208.331682 
L 390.501628 208.002789 
L 390.806907 208.167236 
L 391.112187 207.345005 
L 392.333305 207.345005 
L 392.638584 211.127267 
L 392.943864 208.331682 
L 393.249143 206.851666 
L 393.554423 207.509451 
L 393.859702 207.838343 
L 394.164982 210.469483 
L 394.470261 208.002789 
L 394.775541 207.016112 
L 395.386099 206.193881 
L 395.691379 205.864989 
L 395.996658 206.358327 
L 396.301938 208.660574 
L 396.607217 208.660574 
L 396.912497 207.838343 
L 397.217776 207.838343 
L 397.523056 208.167236 
L 397.828335 208.331682 
L 398.133615 208.167236 
L 398.438894 207.673897 
L 398.744174 204.384973 
L 399.049453 205.042758 
L 399.354733 204.05608 
L 399.965292 203.398295 
L 400.270571 199.451586 
L 400.575851 199.122694 
L 400.88113 199.616033 
L 401.18641 201.589387 
L 401.491689 201.589387 
L 402.102248 200.109371 
L 402.407527 199.944925 
L 402.712807 199.122694 
L 403.933925 199.122694 
L 404.239204 200.931602 
L 404.544484 201.753833 
L 404.849763 202.082726 
L 405.155043 201.589387 
L 405.765602 204.878311 
L 406.376161 206.522773 
L 406.68144 208.002789 
L 406.98672 207.673897 
L 407.291999 203.562742 
L 407.902558 206.358327 
L 408.207837 206.851666 
L 408.818396 202.740511 
L 409.123676 204.220527 
L 409.428955 205.042758 
L 409.734235 203.069403 
L 410.955353 203.069403 
L 411.260632 207.838343 
L 411.565912 208.002789 
L 411.871191 210.633929 
L 412.176471 207.838343 
L 412.48175 206.68722 
L 412.78703 211.949498 
L 413.397589 204.05608 
L 413.702868 202.411618 
L 414.313427 182.678073 
L 414.923986 170.344607 
L 415.534545 160.806727 
L 415.839824 151.433293 
L 416.145104 150.939954 
L 416.450383 150.775508 
L 416.755663 144.855445 
L 417.060942 150.939954 
L 417.366222 149.953277 
L 417.671501 153.899986 
L 417.976781 152.255524 
L 418.28206 153.406648 
L 420.419017 214.90953 
L 421.029575 233.16306 
L 421.334855 242.207601 
L 421.945414 239.740908 
L 422.250693 240.892031 
L 422.555973 240.727585 
L 424.38765 123.80633 
L 425.608768 43.885471 
L 425.914047 44.049918 
L 426.524606 47.338842 
L 427.135165 42.734348 
L 427.440444 44.543256 
L 427.745724 45.529934 
L 428.051003 47.667734 
L 428.356283 48.983304 
L 428.661562 52.436674 
L 429.272121 50.627766 
L 429.88268 48.161073 
L 430.18796 48.325519 
L 430.493239 48.325519 
L 430.798519 47.174396 
L 431.103798 44.707702 
L 431.409078 40.596547 
L 431.714357 38.129854 
L 432.019637 38.787639 
L 432.630196 38.787639 
L 432.935475 41.089886 
L 433.240755 42.405456 
L 433.546034 40.760993 
L 433.851314 42.076563 
L 434.156593 44.049918 
L 434.461872 47.83218 
L 434.767152 46.681057 
L 435.072431 44.543256 
L 435.377711 45.036595 
L 435.68299 46.516611 
L 435.98827 46.516611 
L 436.293549 46.845503 
L 436.598829 48.654412 
L 436.904108 49.476643 
L 437.514667 44.214364 
L 437.819947 46.845503 
L 438.125226 47.667734 
L 438.430506 47.174396 
L 439.041065 43.06324 
L 439.346344 43.392133 
L 439.956903 40.103209 
L 440.262183 42.405456 
L 440.567462 43.392133 
L 440.872741 42.241009 
L 441.178021 42.241009 
L 441.78858 43.227687 
L 442.093859 48.983304 
L 442.399139 48.489965 
L 442.704418 48.818858 
L 443.009698 51.449997 
L 443.314977 51.77889 
L 443.620257 52.601121 
L 444.536095 47.83218 
L 444.841375 47.996627 
L 445.146654 44.37881 
L 445.451934 43.556579 
L 445.757213 41.747671 
L 446.062493 39.116531 
L 446.367772 39.445424 
L 446.673052 36.649838 
L 446.978331 37.143177 
L 447.28361 38.623193 
L 447.58889 41.747671 
L 447.894169 41.254332 
L 448.504728 42.241009 
L 448.810008 45.69438 
L 449.115287 44.543256 
L 449.420567 45.036595 
L 449.725846 48.161073 
L 450.336405 44.707702 
L 450.641685 43.556579 
L 450.946964 43.227687 
L 451.252244 43.06324 
L 451.862803 37.965408 
L 452.168082 38.458747 
L 452.473362 36.649838 
L 452.778641 37.472069 
L 453.083921 41.254332 
L 453.3892 43.392133 
L 453.694479 41.089886 
L 453.999759 41.418778 
L 454.305038 39.445424 
L 454.610318 40.760993 
L 454.915597 40.596547 
L 455.220877 42.734348 
L 456.136715 38.458747 
L 456.441995 38.623193 
L 456.747274 38.952085 
L 457.052554 39.445424 
L 457.663113 43.227687 
L 457.968392 45.529934 
L 458.273672 45.036595 
L 458.578951 47.667734 
L 458.884231 46.681057 
L 459.18951 49.14775 
L 459.800069 52.107782 
L 460.105348 51.943336 
L 460.410628 51.121105 
L 460.715907 50.627766 
L 461.021187 47.503288 
L 461.326466 47.009949 
L 461.631746 47.503288 
L 462.242305 80.885869 
L 463.768702 155.05111 
L 464.379261 193.367077 
L 464.684541 211.291714 
L 464.98982 210.962821 
L 465.600379 216.718439 
L 466.210938 216.060654 
L 466.516217 221.158486 
L 466.821497 221.487379 
L 467.126776 216.389546 
L 467.432056 216.389546 
L 467.737335 214.087299 
L 468.042615 210.798375 
L 468.347894 210.305036 
L 468.653174 210.469483 
L 468.958453 214.580638 
L 469.263733 210.305036 
L 470.179571 193.367077 
L 470.79013 183.171412 
L 471.09541 183.500304 
L 471.705969 179.389149 
L 472.011248 174.949101 
L 472.316528 175.44244 
L 472.621807 174.455762 
L 472.927086 175.277994 
L 473.232366 174.949101 
L 473.537645 179.389149 
L 473.842925 185.473659 
L 474.148204 186.131443 
L 474.453484 184.815874 
L 474.758763 184.322535 
L 475.064043 184.651427 
L 476.285161 208.989467 
L 476.59044 209.976144 
L 476.89572 210.14059 
L 477.200999 210.14059 
L 477.506279 209.482805 
L 478.422117 204.549419 
L 478.727397 204.220527 
L 479.032676 203.069403 
L 479.643235 199.944925 
L 480.864353 199.944925 
L 481.169632 204.549419 
L 481.474912 205.207204 
L 481.780191 204.220527 
L 482.085471 205.536096 
L 482.39075 206.193881 
L 482.69603 209.976144 
L 483.001309 208.82502 
L 483.306589 209.318359 
L 483.611868 210.962821 
L 483.917148 211.620606 
L 484.222427 206.522773 
L 484.527707 204.878311 
L 484.832986 205.207204 
L 485.138266 205.864989 
L 485.443545 208.002789 
L 485.748824 205.37165 
L 486.054104 204.384973 
L 486.359383 201.589387 
L 486.664663 201.589387 
L 487.275222 206.029435 
L 487.580501 204.878311 
L 488.19106 201.91828 
L 489.412178 201.91828 
L 489.717458 204.713865 
L 490.022737 203.562742 
L 490.328017 202.904957 
L 490.633296 203.398295 
L 490.938576 206.029435 
L 491.243855 206.193881 
L 491.854414 204.549419 
L 492.464973 208.167236 
L 492.770252 204.220527 
L 493.075532 205.207204 
L 493.380811 205.042758 
L 493.686091 206.193881 
L 493.99137 205.207204 
L 494.29665 204.878311 
L 494.601929 205.700542 
L 494.907209 205.536096 
L 495.212488 204.220527 
L 496.433606 204.220527 
L 496.738886 206.358327 
L 497.044165 206.68722 
L 497.349445 206.358327 
L 497.654724 204.384973 
L 497.960004 204.05608 
L 498.265283 204.05608 
L 498.570562 204.220527 
L 498.875842 204.713865 
L 499.486401 203.069403 
L 499.79168 199.28714 
L 500.09696 198.464909 
L 500.402239 198.958248 
L 500.707519 200.273817 
L 501.012798 199.944925 
L 501.623357 198.629355 
L 501.928637 198.300463 
L 502.233916 198.958248 
L 503.455034 198.958248 
L 503.760314 202.082726 
L 504.065593 201.91828 
L 504.370873 203.398295 
L 504.676152 204.220527 
L 504.981431 205.536096 
L 505.286711 208.331682 
L 505.59199 209.153913 
L 505.89727 209.647251 
L 506.202549 211.127267 
L 506.507829 211.291714 
L 506.813108 207.838343 
L 507.423667 208.82502 
L 507.728947 208.331682 
L 508.034226 207.509451 
L 508.339506 204.05608 
L 508.644785 207.345005 
L 508.950065 208.331682 
L 509.255344 208.496128 
L 509.560624 209.153913 
L 509.865903 209.153913 
L 510.171183 210.14059 
L 510.476462 210.305036 
L 510.781742 210.962821 
L 511.087021 210.798375 
L 511.3923 210.962821 
L 511.69758 207.673897 
L 512.002859 210.305036 
L 512.308139 208.167236 
L 512.918698 207.180558 
L 513.223977 207.673897 
L 513.529257 206.358327 
L 513.834536 206.029435 
L 514.139816 206.029435 
L 514.445095 205.536096 
L 514.750375 205.536096 
L 515.055654 201.91828 
L 515.360934 203.891634 
L 515.666213 203.727188 
L 515.971493 204.713865 
L 516.276772 203.727188 
L 516.582052 203.398295 
L 516.887331 204.220527 
L 517.192611 204.05608 
L 517.49789 205.042758 
L 518.719008 205.042758 
L 519.329567 209.647251 
L 519.634846 209.153913 
L 519.940126 207.838343 
L 520.245405 208.496128 
L 520.550685 208.496128 
L 520.855964 208.660574 
L 521.161244 209.153913 
L 521.466523 207.838343 
L 521.771803 207.016112 
L 522.077082 203.398295 
L 522.382362 202.082726 
L 522.687641 203.727188 
L 522.992921 204.384973 
L 523.60348 201.91828 
L 523.908759 202.247172 
L 524.214039 202.904957 
L 524.519318 202.247172 
L 525.740436 202.247172 
L 526.045715 205.37165 
L 526.350995 207.016112 
L 526.656274 207.509451 
L 526.961554 206.68722 
L 527.266833 207.673897 
L 527.572113 211.785052 
L 528.182672 213.429514 
L 528.487951 212.936176 
L 528.793231 212.771729 
L 529.09851 212.442837 
L 529.40379 211.45616 
L 529.709069 212.113945 
L 530.014349 212.442837 
L 530.319628 211.620606 
L 530.624908 211.620606 
L 530.930187 210.633929 
L 531.235466 210.305036 
L 531.540746 210.633929 
L 531.846025 210.14059 
L 532.151305 207.509451 
L 532.456584 208.002789 
L 532.761864 207.180558 
L 533.067143 207.673897 
L 533.372423 206.851666 
L 533.677702 204.05608 
L 533.982982 205.042758 
L 534.288261 205.536096 
L 534.89882 205.536096 
L 535.509379 205.207204 
L 536.119938 206.193881 
L 537.341056 206.193881 
L 537.646335 208.82502 
L 537.951615 209.318359 
L 538.256894 209.318359 
L 538.562174 209.482805 
L 538.867453 209.482805 
L 539.172733 208.989467 
L 539.478012 209.153913 
L 539.783292 208.82502 
L 540.088571 209.976144 
L 540.393851 209.811698 
L 540.69913 207.016112 
L 541.00441 207.016112 
L 541.309689 207.180558 
L 541.614969 207.509451 
L 541.920248 207.345005 
L 542.225528 207.016112 
L 542.530807 207.345005 
L 542.836087 207.838343 
L 543.141366 206.68722 
L 544.362484 206.68722 
L 544.667763 210.305036 
L 544.973043 211.291714 
L 545.888881 209.811698 
L 546.194161 213.922853 
L 546.80472 203.562742 
L 547.109999 203.069403 
L 547.720558 183.829196 
L 548.331117 172.646854 
L 548.941676 164.58899 
L 549.246956 153.406648 
L 549.552235 153.899986 
L 549.857515 153.242201 
L 550.162794 147.486584 
L 550.468073 152.255524 
L 550.773353 151.597739 
L 551.078632 152.255524 
L 551.383912 151.433293 
L 551.689191 151.926632 
L 552.910309 188.43369 
L 553.520868 207.345005 
L 554.741986 244.180956 
L 555.047266 241.714262 
L 555.352545 241.056478 
L 555.657825 242.207601 
L 555.963104 242.043155 
L 557.184222 165.411221 
L 559.015899 42.569902 
L 559.321178 38.458747 
L 559.626458 39.774316 
L 559.931737 40.103209 
L 560.237017 40.596547 
L 560.542296 41.418778 
L 560.847576 43.392133 
L 561.152855 43.885471 
L 561.763414 51.449997 
L 562.068694 50.298874 
L 562.373973 50.298874 
L 562.679253 48.818858 
L 562.984532 48.654412 
L 563.289811 46.845503 
L 563.595091 48.983304 
L 563.90037 46.681057 
L 564.20565 48.161073 
L 564.510929 48.325519 
L 564.816209 47.996627 
L 565.121488 47.996627 
L 565.426768 50.298874 
L 565.732047 49.805535 
L 566.037327 48.983304 
L 566.342606 49.969981 
L 566.647886 48.983304 
L 566.953165 49.969981 
L 567.563724 47.667734 
L 567.869004 48.654412 
L 568.174283 47.338842 
L 568.479563 45.529934 
L 568.784842 47.338842 
L 569.090122 47.338842 
L 569.395401 49.14775 
L 569.70068 49.641089 
L 570.00596 48.983304 
L 570.311239 50.46332 
L 570.921798 46.352165 
L 571.227078 46.516611 
L 571.532357 46.187718 
L 572.142916 49.14775 
L 572.753475 47.667734 
L 573.058755 47.667734 
L 573.364034 44.707702 
L 573.669314 45.529934 
L 573.974593 45.365487 
L 574.279873 43.556579 
L 574.585152 44.872149 
L 574.890432 43.556579 
L 575.195711 43.392133 
L 575.500991 40.596547 
L 575.80627 39.445424 
L 576.111549 40.267655 
L 576.416829 44.214364 
L 576.722108 44.707702 
L 577.027388 44.214364 
L 577.332667 47.503288 
L 577.943226 43.392133 
L 578.248506 43.556579 
L 578.553785 46.516611 
L 578.859065 46.023272 
L 579.164344 45.201041 
L 579.469624 42.405456 
L 579.774903 42.734348 
L 580.080183 41.583224 
L 580.690742 43.06324 
L 580.996021 44.37881 
L 581.301301 42.569902 
L 581.60658 41.583224 
L 581.91186 44.707702 
L 582.217139 44.214364 
L 582.827698 45.201041 
L 583.132977 45.201041 
L 583.438257 41.089886 
L 583.743536 40.760993 
L 584.048816 39.116531 
L 584.354095 39.774316 
L 584.659375 39.280978 
L 584.964654 36.320946 
L 585.269934 38.787639 
L 585.575213 39.60987 
L 585.880493 40.92544 
L 586.185772 41.254332 
L 586.491052 40.760993 
L 586.796331 41.254332 
L 587.101611 44.37881 
L 587.40689 42.241009 
L 587.71217 44.214364 
L 588.017449 43.721025 
L 588.322729 44.214364 
L 588.628008 44.37881 
L 588.933287 43.885471 
L 589.238567 45.036595 
L 589.543846 46.681057 
L 589.849126 46.845503 
L 590.154405 48.161073 
L 590.459685 46.187718 
L 590.764964 45.365487 
L 591.070244 45.036595 
L 591.375523 43.721025 
L 591.680803 44.214364 
L 591.986082 41.583224 
L 592.291362 42.569902 
L 592.596641 46.845503 
L 592.901921 49.14775 
L 593.2072 46.681057 
L 593.51248 51.77889 
L 593.817759 49.969981 
L 594.123039 52.272228 
L 594.428318 52.930013 
L 594.733598 52.107782 
L 595.038877 54.245583 
L 595.954715 100.290522 
L 598.091672 212.113945 
L 598.396951 211.785052 
L 598.702231 214.580638 
L 599.00751 216.060654 
L 599.31279 215.896207 
L 599.618069 216.060654 
L 599.923349 222.474056 
L 600.228628 221.322932 
L 600.533908 215.896207 
L 600.839187 216.2251 
L 601.449746 210.633929 
L 601.755026 210.14059 
L 602.060305 210.305036 
L 602.365584 214.580638 
L 604.197261 182.349181 
L 604.502541 182.842519 
L 604.80782 180.540272 
L 605.418379 173.469085 
L 605.723659 174.12687 
L 606.028938 172.317962 
L 606.334218 174.455762 
L 606.639497 174.784655 
L 607.250056 185.638105 
L 607.555336 184.815874 
L 607.860615 184.651427 
L 608.165895 185.144766 
L 608.471174 184.815874 
L 609.081733 198.300463 
L 609.387012 202.082726 
L 609.387012 202.082726 
" style="fill:none;stroke:#1f77b4;stroke-linecap:square;stroke-width:1.5;"/>
   </g>
   <g id="patch_3">
    <path d="M 84.6 249.2712 
L 84.6 33.6096 
" style="fill:none;stroke:#000000;stroke-linecap:square;stroke-linejoin:miter;stroke-width:0.8;"/>
   </g>
   <g id="patch_4">
    <path d="M 609.12 249.2712 
L 609.12 33.6096 
" style="fill:none;stroke:#000000;stroke-linecap:square;stroke-linejoin:miter;stroke-width:0.8;"/>
   </g>
   <g id="patch_5">
    <path d="M 84.6 249.2712 
L 609.12 249.2712 
" style="fill:none;stroke:#000000;stroke-linecap:square;stroke-linejoin:miter;stroke-width:0.8;"/>
   </g>
   <g id="patch_6">
    <path d="M 84.6 33.6096 
L 609.12 33.6096 
" style="fill:none;stroke:#000000;stroke-linecap:square;stroke-linejoin:miter;stroke-width:0.8;"/>
   </g>
  </g>
 </g>
 <defs>
  <clipPath id="p813ce1aae1">
   <rect height="215.6616" width="524.52" x="84.6" y="33.6096"/>
  </clipPath>
 </defs>
</svg>
